# xmcd
#
# Track frame offsets:
#	150
#	10430
#	24617
#	37454
#	50249
#	63574
#	76362
#	88198
#	102570
#	114577
#	127025
#	141422
#	155979
#	167424
#	180172
#	190948
#	203957
#	216153
#	228890
#	240435
#	253870
#	265533
#	278976
#	289925
#	301174
#
# Disc length: 4202 seconds
#
# Revision: 1
# Processed by: cddbd v1.5.2PL0 Copyright (c) Steve Scherf et al.
# Submitted via: audiograbber 1.83.01
#
DISCID=7b106819
DTITLE=Sampler - Cross The Tracks Essential Pioneer Blues CD2
DYEAR=1900
DGENRE=Blues
TTITLE0=01 - John Lee Hooker - Dimples
TTITLE1=02 - Howlin' Wofl - Smokestack Lightnin'
TTITLE2=03 - Big Mama Thornton - Hound Dog
TTITLE3=04 - Amos Milburn - Chicken Shack Boogie
TTITLE4=05 - B.B.King - Woke Up This Morning
TTITLE5=06 - Pete Johnson With Joe Turner - Roll 'Em Pete
TTITLE6=07 - Fats Domino - The Fat Man
TTITLE7=08 - Elmore James - Dust My Broom
TTITLE8=09 - Otis Rush - All Your Love (I Miss Loving)
TTITLE9=10 - Earl Hooker - Blue Guitar
TTITLE10=11 - Lowell Fulson - Reconsider Baby
TTITLE11=12 - Ruth Brown - 5 10 15 Hours
TTITLE12=13 - Little Walter Juke - My Babe
TTITLE13=14 - Jimmy Reed - Shame, Shame, Shame
TTITLE14=15 - Little Junior's Blue Flames - Mystery Train
TTITLE15=16 - Arthur Big Boy Crudup - That's All Right
TTITLE16=17 - Billy Boy Arnold - I Wish You Would
TTITLE17=18 - Bobby Parker - Blues Get Off My Shoulder
TTITLE18=19 - Smiley Lewis - I Hear You Knockin'
TTITLE19=20 - Roy Milton and His Solid Senders - R.M. Blues
TTITLE20=21 - Sonny Boy Williamson - Don't Start Me Talkin'
TTITLE21=22 - T-Bone Walker - T-Bone Shuffle
TTITLE22=23 - Albert Ammons - Shout For Joy
TTITLE23=24 - Big Bill Broonzy - All By Myself
TTITLE24=25 - Albert King - Born Under A Bad Sign
EXTD=
EXTT0=
EXTT1=
EXTT2=
EXTT3=
EXTT4=
EXTT5=
EXTT6=
EXTT7=
EXTT8=
EXTT9=
EXTT10=
EXTT11=
EXTT12=
EXTT13=
EXTT14=
EXTT15=
EXTT16=
EXTT17=
EXTT18=
EXTT19=
EXTT20=
EXTT21=
EXTT22=
EXTT23=
EXTT24=
PLAYORDER=
